<?xml version="1.0" standalone="no"?>
<!DOCTYPE svg PUBLIC "-//W3C//DTD SVG 20010904//EN"
 "http://www.w3.org/TR/2001/REC-SVG-20010904/DTD/svg10.dtd">
<svg version="1.0" xmlns="http://www.w3.org/2000/svg"
 width="89.000000pt" height="89.000000pt" viewBox="0 0 89.000000 89.000000"
 preserveAspectRatio="xMidYMid meet">
<metadata>
Created by potrace 1.11, written by Peter Selinger 2001-2013
</metadata>
<g transform="translate(0.000000,89.000000) scale(0.100000,-0.100000)"
fill="#000000" stroke="none">
<path d="M200 880 c0 -6 -11 -15 -24 -21 -14 -7 -22 -17 -19 -25 3 -9 -2 -14
-16 -14 -22 0 -29 -16 -10 -22 9 -3 9 -21 -1 -70 -11 -53 -11 -75 -2 -106 14
-47 15 -65 3 -58 -32 20 -58 -37 -46 -100 8 -45 60 -104 91 -104 18 0 27 -8
34 -27 6 -16 29 -44 51 -64 45 -40 45 -59 -2 -59 -47 0 -96 -26 -113 -59 -9
-17 -16 -55 -16 -91 l0 -60 258 0 c274 0 422 8 422 21 0 5 -27 9 -60 9 -55 0
-60 2 -66 24 -9 38 2 46 62 46 30 0 54 5 54 10 0 6 -28 10 -65 10 l-64 0 -7
36 c-8 45 0 53 64 61 104 12 149 -38 139 -154 -4 -40 -3 -62 3 -58 6 3 10 40
10 82 0 81 0 80 -91 157 -14 11 -19 29 -19 61 0 32 -5 47 -15 51 -12 5 -9 12
15 37 47 49 56 151 14 172 -20 10 -21 13 -8 43 11 27 11 45 -1 116 -15 95 -24
116 -61 145 -25 20 -39 21 -270 21 -160 0 -244 -4 -244 -10z m212 -104 c18
-10 30 -11 34 -5 10 16 189 4 190 -13 1 -23 25 -100 38 -122 6 -12 12 -30 11
-41 0 -22 -3 -22 -90 -6 l-50 8 55 2 c52 2 54 3 35 17 -14 11 -35 14 -73 11
-58 -4 -87 -21 -62 -37 21 -13 -31 -24 -78 -15 -92 16 -152 17 -183 1 -18 -9
-34 -16 -36 -16 -7 0 6 69 16 88 6 9 13 33 16 53 7 44 20 56 77 74 56 18 68
18 100 1z m348 -47 c0 -17 -4 -28 -10 -24 -5 3 -10 13 -10 21 0 8 -3 13 -7 13
-20 -3 -26 2 -13 11 27 18 40 11 40 -21z m-497 -176 c-5 -15 -3 -16 8 -5 17
16 30 15 23 -2 -3 -7 2 -16 11 -20 9 -3 13 -10 10 -16 -9 -14 18 -13 33 2 17
17 15 31 -3 25 -8 -4 -17 -1 -21 5 -5 7 4 9 25 6 25 -4 31 -1 26 10 -3 8 0 12
7 10 20 -7 21 -44 3 -62 -17 -17 -87 -20 -135 -7 -40 11 -41 71 -1 71 15 0 19
-5 14 -17z m281 -6 c-1 -9 4 -17 12 -17 8 0 14 -7 14 -15 0 -17 2 -18 24 -9 9
3 16 15 16 26 0 14 5 18 16 14 12 -4 15 -2 10 9 -7 19 8 19 24 0 7 -8 16 -12
21 -9 5 3 9 -6 9 -20 0 -13 5 -26 10 -28 13 -4 -7 -115 -26 -142 -8 -11 -14
-28 -14 -37 0 -9 -17 -29 -37 -45 -21 -15 -40 -32 -41 -36 -7 -16 -58 -36 -97
-39 -87 -6 -125 0 -148 24 -12 12 -40 37 -62 54 -33 25 -44 44 -62 100 -34
110 -37 130 -16 128 10 -1 28 -7 40 -13 31 -17 124 -15 150 3 12 8 23 25 25
38 2 16 11 23 31 25 27 3 27 3 27 -60 0 -35 3 -73 6 -85 8 -30 -18 -40 -54
-22 -15 7 -30 15 -34 17 -5 2 -8 -2 -8 -8 0 -6 15 -17 34 -25 27 -11 40 -12
65 -2 30 11 41 32 20 39 -5 2 -13 23 -16 47 -6 41 -5 43 15 32 26 -14 112 -14
146 -1 15 6 26 17 25 27 -1 15 -2 16 -6 2 -8 -30 -130 -40 -157 -13 -17 16
-21 46 -9 58 14 13 48 1 47 -17z m-396 -9 c19 -19 14 -33 -6 -15 -10 10 -23
17 -28 17 -5 0 -1 -5 10 -11 15 -9 16 -13 5 -20 -11 -7 -10 -9 4 -9 21 0 21
-3 1 -42 -12 -23 -18 -28 -25 -17 -6 10 -6 73 1 107 1 7 28 0 38 -10z m452 2
c0 -5 -4 -10 -9 -10 -6 0 -13 5 -16 10 -3 6 1 10 9 10 9 0 16 -4 16 -10z m173
0 c-12 -5 -26 -17 -32 -27 -6 -10 -11 -14 -11 -9 0 16 32 46 49 45 11 0 9 -3
-6 -9z m17 -35 c1 17 4 24 7 17 8 -21 -7 -82 -20 -82 -7 0 -17 11 -24 25 -9
21 -8 27 5 35 10 5 13 10 9 10 -5 0 -5 6 0 13 5 8 10 2 14 -18 l7 -30 2 30z
m-71 -89 c-9 -8 -10 -7 -5 7 3 10 7 24 7 30 1 7 3 4 6 -7 3 -10 -1 -23 -8 -30z
m-539 13 c0 -11 -4 -17 -10 -14 -5 3 -10 13 -10 21 0 8 5 14 10 14 6 0 10 -9
10 -21z m-4 -32 c8 3 14 -1 14 -11 0 -23 -15 -20 -47 10 -22 20 -23 23 -4 11
13 -9 30 -13 37 -10z m562 -14 c-14 -17 -28 -16 -28 1 0 8 9 14 19 13 15 -1
17 -4 9 -14z m17 -70 c3 -21 8 -45 9 -55 3 -12 -5 -17 -30 -20 -53 -6 -74 27
-58 90 5 17 14 22 40 22 31 0 34 -3 39 -37z m-86 -64 c16 -27 0 -40 -43 -37
-39 4 -42 19 -9 40 35 22 36 22 52 -3z m-194 -77 c-6 -4 -15 -18 -21 -32 l-11
-25 -13 25 c-7 14 -18 28 -24 32 -6 4 9 8 34 8 25 0 40 -4 35 -8z"/>
<path d="M270 626 l-25 -14 25 -6 c14 -3 48 -7 77 -9 48 -4 51 -3 42 15 -5 10
-16 18 -23 18 -7 0 -26 2 -42 5 -16 3 -40 -1 -54 -9z"/>
<path d="M345 319 c26 -10 176 -11 192 -1 6 4 -39 7 -100 8 -61 0 -102 -3 -92
-7z"/>
<path d="M417 271 c-17 -6 -17 -8 5 -18 31 -14 63 1 38 17 -17 11 -18 11 -43
1z"/>
<path d="M795 140 c3 -5 11 -10 16 -10 6 0 7 5 4 10 -3 6 -11 10 -16 10 -6 0
-7 -4 -4 -10z"/>
</g>
</svg>
